<?xml version="1.0" encoding="UTF-8"?>
<svg id="Layer_2" data-name="Layer 2" xmlns="http://www.w3.org/2000/svg" viewBox="0 0 352.62 86.19">
  <g id="Layer_1-2" data-name="Layer 1">
    <g>
      <g>
        <path d="M250.65,60.34l-7.17.22-.49-23.12c-.07-3.32-4.81-5.27-7.36-5.02s-7.18,3.05-7.24,6.36l-.4,21.67-7.42-.07.05-33.6,4.97-.5c1.23-.12,2.21,2.4,2.88,3.97,3.07-2.84,6.89-4.6,11.14-4.62s7.6,2.23,10.08,5.91c3.38-4.03,7.32-5.86,12.42-5.88,5.54-.02,11.25,3.96,11.32,10.25l.28,24.43-7.49.16-.44-22.71c-.07-3.55-5.32-5.74-7.91-5.25-2.84.54-6.97,3.4-7.01,6.91l-.22,20.89Z"/>
        <path d="M319.09,69.16c.56-1.74,2.29-4.04,3.72-5.3,5.81,4.34,13.3,6.58,19.29,1.7,3.31-2.7,3.23-8.46,2.5-12-3.21,5-7.71,6.13-13.12,5.88-4.5-.21-9.26-2.81-11.78-7.65-3.85-7.39-3.21-16.66,3.19-22.43s16.12-4.72,21.69,1.23c.7-1.46,1.06-4.09,2.17-4.08l5.87.03-.1,32.27c-.02,7.18-4.53,13.06-11.27,14.91-7.5,2.06-15.23.94-22.16-4.56ZM345.34,42.54c0-5.67-4.6-10.27-10.27-10.27s-10.27,4.6-10.27,10.27,4.6,10.27,10.27,10.27,10.27-4.6,10.27-10.27Z"/>
        <path d="M157.3,43.52c0,10.06-8.15,18.21-18.21,18.21s-18.21-8.15-18.21-18.21,8.15-18.21,18.21-18.21,18.21,8.15,18.21,18.21ZM149.57,43.46c-.03-6.42-4.47-11.35-10.74-11.25-5.41.09-9.9,4.59-10.22,10.42-.39,6.97,3.89,11.95,10.27,12.06s10.72-4.59,10.69-11.23Z"/>
        <path d="M290.58,61.44c-6.43-.28-10.31-4.59-10.78-9.55-.51-5.44,3.58-10.64,9.69-11.01l13.3-.8c1.35-2.93-1.01-7.23-4.41-7.87-5.01-.94-8.87.38-14.07,2.91l-2.29-5.48c7.02-4.18,14.65-5.16,22.39-2.33,2.99,1.1,6.28,5.73,6.29,9.07l.09,23.88-5.22.33c-1.03.07-2-2.12-2.61-3.18-3.33,2.43-7.43,4.25-12.38,4.04ZM302.57,45.6c-5.86-.87-16.13-1.24-15.34,5.31.3,2.48,2.86,4.72,5.77,4.77,3.22.05,6.02-.97,8.24-2.58,1.61-1.17,2.7-5.7,1.33-7.49Z"/>
        <path d="M202.78,34.81c-2.84-3.06-6.97-2.78-9.88-1.43-2.65,1.23-4.98,4.56-4.98,7.88v19.16s-7.62.01-7.62.01V26.71s5.4-.43,5.4-.43c1.25-.1,1.86,2.86,2.37,4.37,3.68-3.34,7.46-4.94,12.18-5,6.19-.08,11.84,4.05,11.94,10.82l.32,23.92-7.57.15-.03-19.19c0-1.57-.91-5.22-2.13-6.54Z"/>
        <path d="M110.68,49.45l6.25,2.67c-2.58,6.38-8.08,8.98-14.48,9.29-10.4.52-18.34-6.77-18.86-17.04-.56-11.05,7.7-19.31,18.84-18.81,6.34.29,12.04,2.66,14.65,9.16l-6.42,3.01c-3.18-4.72-7.56-6.5-12.18-4.97-4.34,1.43-7.26,5.49-7.17,10.72.08,4.65,2.56,9.05,6.24,10.33,4.88,1.7,9.5.92,13.12-4.36Z"/>
        <rect x="164.16" y="26.34" width="7.52" height="34.26"/>
        <rect x="163.98" y="13.14" width="7.83" height="7.47" transform="translate(-.07 .66) rotate(-.23)"/>
      </g>
      <polygon points="39.87 42.25 57.11 67.71 76.34 42 56.91 17.33 39.87 42.25"/>
      <polygon points="36.7 0 0 41.56 36.82 86.19 36.7 0"/>
    </g>
  </g>
</svg>